<svg id="レイヤー_1" data-name="レイヤー 1" xmlns="http://www.w3.org/2000/svg" viewBox="0 0 664.12 234.03"><defs><style>.cls-1{fill:#1bb7ca;}.cls-2{fill:#fff;}.cls-3{fill:#ec6c1f;}.cls-4{fill:#4c4c4c;}</style></defs><polygon class="cls-1" points="217.16 234.03 0 234.03 108.58 45.96 135.61 92.78 80.59 188.07 190.63 188.07 217.16 234.03"/><polygon class="cls-2" points="190.63 188.07 80.59 188.07 135.61 92.78 190.63 188.07"/><polygon class="cls-3" points="297.75 188.07 190.63 188.07 135.61 92.78 189.17 0 297.75 188.07"/><path class="cls-4" d="M457,252.43h9.43v5.27H457v5.52h9.43v5.08H457v5.51H469.1v5.62h-36V260.36q-1.67,3.54-2.58,5.08l-4.64-6.29a8.9,8.9,0,0,0,.59-.72,1.43,1.43,0,0,0,.37-.73h-8.78v5.52h9.43v5.08h-9.43v5.51h12.23v5.62H394.1V260.36a50.25,50.25,0,0,1-2.62,5.08l-4.5-6.29q6.88-11,10.34-28l6.9,1c-.71,3.38-1.4,6.32-2.07,8.8H412a93.49,93.49,0,0,0,2.71-9.77l6.9,1q-.83,3.72-2.3,8.8h10.16v6.19h-11.4v5.28h9.43v4.06q5.65-10.26,8.78-25.3l6.8,1c-.7,3.38-1.41,6.32-2.11,8.8H451a77.61,77.61,0,0,0,2.57-9.77l6.95,1c-.71,3.16-1.47,6.09-2.3,8.8h10.11v6.19H457Zm-64.33,38.75V284.8h70.22v6.38q-8.14,9.48-22.21,16a218.24,218.24,0,0,0,29.43,6.48L467.54,320a184.66,184.66,0,0,1-35.87-9.14q-16.32,5.94-40.92,9.14l-2.53-6.39a206.5,206.5,0,0,0,34.21-6.48q-13-5.72-20.28-11.9l3.68-4.07Zm8.46-44v5.28H411v-5.28ZM411,257.7h-9.93v5.52H411Zm-9.93,16.11H411V268.3h-9.93Zm30.58,30.24q13.69-5.26,21.84-12.87H408Q416.92,298.54,431.67,304.05Zm8.37-56.9v5.28h10v-5.28Zm10,10.55H440v5.52h10Zm-10,16.11h10V268.3H440Z" transform="translate(-33.13 -132.98)"/><path class="cls-4" d="M521.17,245.61h6.07v67.06h-22V319h-6.57V245.61h6.06V306h5V232.83h6.39V306h5Zm9.11,27.72-1.89-6.15a118.19,118.19,0,0,0,23.45-8,79.54,79.54,0,0,1-10.9-9.24,77.66,77.66,0,0,1-8.46,7l-4.18-5.47a73.43,73.43,0,0,0,19.63-20.61l7,1.21a57.09,57.09,0,0,1-3.36,5.27h29v6.29a66.81,66.81,0,0,1-16,15.53,108.77,108.77,0,0,0,19.77,7.79l-1.56,6.29a119.39,119.39,0,0,1-24.7-10.11A115.44,115.44,0,0,1,530.28,273.33Zm53.06,29.51v6.54H560.72v11.85h-7.41V309.38H529.63v-6.54h23.68v-7.69H533V289.2h20.32v-7.79h-22v-6.29h22v-8.18h7.41v8.18h20.5v6.29h-20.5v7.79h18.62v5.95H560.72v7.69Zm-25-47.32a57.17,57.17,0,0,0,14-11.9H546.92c-.15.16-.3.33-.44.51a2.62,2.62,0,0,1-.46.48c-.16.15-.33.3-.48.46A75.84,75.84,0,0,0,558.32,255.52Z" transform="translate(-33.13 -132.98)"/><path class="cls-4" d="M612.37,260.7l4.28-4.3q6.06,5.5,9.52,8.9c2.23-1.9,4.47-4,6.71-6.24q-6.17-6.15-9.33-8.95l4.18-4.41q6,5.63,9.1,8.71a61.35,61.35,0,0,0,7.32-11.22h-18.4a76.74,76.74,0,0,1-15.82,14.17l-3.44-5.61q13.6-9.83,20.41-21.67l6.3,1.88c-.7,1.39-1.72,3.18-3,5.37h17.15a11.5,11.5,0,0,1-.85-2.37c-.29-1.06-.47-1.69-.53-1.89l6.8-1a72.66,72.66,0,0,0,16.1,27.19,76.58,76.58,0,0,0,11.54-16H660.06V237h28.27v6.24a84,84,0,0,1-14.34,21,104.77,104.77,0,0,0,21,14.18L691.88,285a110.77,110.77,0,0,1-22.31-15.87V274h-38v-4.6A106,106,0,0,1,609,285l-3.13-6.29a109,109,0,0,0,15.36-9.58Q616.56,264.57,612.37,260.7Zm-2.85,52a74.71,74.71,0,0,0,19.59-20.62l5.1,3.87A77.68,77.68,0,0,1,614,317.84Zm78-28.74v6.58h-32v18.62c0,4.62-.63,7.51-1.89,8.69s-4.32,1.76-9.19,1.76q-5.16,0-12.65-.53l-.23-6.48q7.13.44,11.63.43c2.36,0,3.75-.17,4.16-.5s.63-1.38.63-3.12V290.51H613.38v-6.58Zm-53.89-16.41h34.3a88.59,88.59,0,0,1-17.06-22.59A78.51,78.51,0,0,1,633.62,267.52Zm31.68,28.84,4.73-4.84a190.87,190.87,0,0,1,21.43,22l-4.83,4.74A216.59,216.59,0,0,0,665.3,296.36Z" transform="translate(-33.13 -132.98)"/><path class="cls-4" d="M394.19,191.9a19,19,0,0,0,4.75-7.83l2.06.48a16.61,16.61,0,0,1-.82,2.36h8v1.83a15.68,15.68,0,0,0,3.58-4.7l2,.54a19.38,19.38,0,0,1-1.27,2.33h8.49v2h-5.47c.55,1.43,1,2.64,1.34,3.64l-2,.79q-.7-1.9-1.68-4.43H411a18.37,18.37,0,0,1-3.29,3l-1.41-1.6A14.69,14.69,0,0,0,408,189h-5.06c.09.23.55,1.49,1.39,3.77l-2.05.73q-.79-2.25-1.71-4.5h-1.42a20.73,20.73,0,0,1-3.45,4.5ZM405.54,206a47.28,47.28,0,0,1-10.7,4.08l-.36-2.1c1.91-.51,3.54-1,4.9-1.49V196.6h-4.31v-2.08h11.17v2.08h-4.59v9c1.28-.51,2.45-1,3.53-1.6Zm3.92-10.25v2.08a24.38,24.38,0,0,1-1.38,9.07,10.85,10.85,0,0,1-4.55,5.29l-1.37-1.93a9.25,9.25,0,0,0,4-4.54,22.71,22.71,0,0,0,1.15-8.21v-3.8h10.79v14.51a3.39,3.39,0,0,0,.13,1.28c.09.11.33.17.72.17a1,1,0,0,0,1-.87,41.56,41.56,0,0,0,.27-5.46l1.91.14c0,1.43-.05,2.54-.1,3.34s-.12,1.54-.22,2.25a7.22,7.22,0,0,1-.31,1.49,1.67,1.67,0,0,1-.63.76,2,2,0,0,1-.92.38,11.22,11.22,0,0,1-1.32.05c-1.2,0-2-.18-2.26-.55a4.65,4.65,0,0,1-.46-2.57V195.77Zm.34,3.09,1.9-1a53,53,0,0,1,3.68,8.42l-1.91.92A50.89,50.89,0,0,0,409.8,198.86Z" transform="translate(-33.13 -132.98)"/><path class="cls-4" d="M444.87,198.26a53.9,53.9,0,0,0-5.34-4.7l1.32-1.7a66.57,66.57,0,0,1,5.36,4.71Zm2,4a37.42,37.42,0,0,1-4.67,9.89l-1.86-1.28a41.17,41.17,0,0,0,4.59-9.42Zm-6-15.52,1.34-1.69a55.5,55.5,0,0,1,4.85,4.29L445.75,191Q443.68,188.92,440.92,186.7Zm11.45,11.78,1.94-.87a21.86,21.86,0,0,0,4.11,6.81,24.83,24.83,0,0,0,4.35-7.57H450.88V197q0,9.35-3.22,15.14l-1.61-1.84a24.78,24.78,0,0,0,2-6.32,45.71,45.71,0,0,0,.65-8.42v-8.22h8v-3h2.27v3h8.19v2.09a22.58,22.58,0,0,1-2,4.56l-1.84-1a21.27,21.27,0,0,0,1.74-3.56h-6.05v5.4h6.12v2A27.83,27.83,0,0,1,460,206a20.79,20.79,0,0,0,7.5,4l-.56,2.07a20.88,20.88,0,0,1-8.49-4.51,21.24,21.24,0,0,1-8,4.51L449.7,210a18.29,18.29,0,0,0,7.17-4A25.52,25.52,0,0,1,452.37,198.48Zm4.41-9h-5.9v5.4h5.9Z" transform="translate(-33.13 -132.98)"/><path class="cls-4" d="M487,193.07V190.9h11.46v-6.24h2.37v6.24h11.45v2.17H500.87a19.56,19.56,0,0,0,3.51,9.94,21.54,21.54,0,0,0,8.37,7l-1.21,1.87a22.23,22.23,0,0,1-7.29-5.59,22.76,22.76,0,0,1-4.53-8,22.75,22.75,0,0,1-4.6,8.07,22,22,0,0,1-7.41,5.56L486.49,210a22.32,22.32,0,0,0,8.37-7,19,19,0,0,0,3.52-9.92Z" transform="translate(-33.13 -132.98)"/><path class="cls-4" d="M537.37,195.14v-2.07h16.31v2.07a39.33,39.33,0,0,1-6.58,5.56v.79h11.84v2.14H547.1v5.19c0,1.54-.18,2.49-.56,2.84s-1.37.52-3,.52c-.7,0-2.26,0-4.67-.13l0-2.15c2.29.09,3.78.14,4.48.14s1.11-.06,1.23-.19a2.56,2.56,0,0,0,.18-1.3v-4.92H532.11v-2.14h12.62v-2.8h1.46a48.77,48.77,0,0,0,4.37-3.55Zm18.16-4.59h-20v5h-2.24v-7.09h4.41a35,35,0,0,0-1.84-3.17l2-.92a44.82,44.82,0,0,1,2.33,4.09h4.48a34.14,34.14,0,0,0-1.95-3.5l2-.9a48.16,48.16,0,0,1,2.4,4.4h3.79a44.13,44.13,0,0,0,2.37-4.26l2.07.68a39.1,39.1,0,0,1-2,3.58h4.41v7.09h-2.24Z" transform="translate(-33.13 -132.98)"/><path class="cls-4" d="M583.27,195.14v-2.07h16.31v2.07A38.93,38.93,0,0,1,593,200.7v.79h11.85v2.14H593v5.19c0,1.54-.18,2.49-.55,2.84s-1.37.52-3,.52c-.71,0-2.26,0-4.67-.13l0-2.15c2.28.09,3.77.14,4.47.14s1.11-.06,1.23-.19a2.56,2.56,0,0,0,.18-1.3v-4.92H578v-2.14h12.62v-2.8h1.46a47.4,47.4,0,0,0,4.37-3.55Zm18.17-4.59h-20v5h-2.24v-7.09h4.41a35,35,0,0,0-1.84-3.17l2-.92a44.84,44.84,0,0,1,2.32,4.09h4.49a36,36,0,0,0-2-3.5l2-.9a48.16,48.16,0,0,1,2.4,4.4h3.79a44,44,0,0,0,2.38-4.26l2.06.68a39.06,39.06,0,0,1-2,3.58h4.41v7.09h-2.24Z" transform="translate(-33.13 -132.98)"/><path class="cls-4" d="M650,185.25v27.42h-2.24v-1.41H626.91v1.41h-2.24V185.25Zm-23.09,24.06h20.85V187.22H626.91Zm16.74-4.37c1.47.87,2.56,1.56,3.28,2.06l-1.31,1.41a69.66,69.66,0,0,0-7.1-4.29v4.08h-2.27v-3.88a43.26,43.26,0,0,1-7.48,4l-.95-1.73a36.15,36.15,0,0,0,8.85-4.7h-6.31v-5.92h14v5.92h-5a2.41,2.41,0,0,0-.26.24l-.26.27c1.62.84,2.65,1.38,3.1,1.63a42.19,42.19,0,0,0,3.51-2.9l1.21,1.34C645.58,203.41,644.58,204.25,643.65,204.94Zm1.61-13.81h-6.77V193h8v1.73H628.18V193h8.07v-1.84h-6.78v-1.69h6.78v-1.6h2.24v1.6h6.77Zm-12.73,9.08h9.68v-2.68h-9.68Z" transform="translate(-33.13 -132.98)"/><path class="cls-4" d="M671.26,193.56l1.35-1.35c1.27,1.15,2.27,2.09,3,2.8.7-.6,1.41-1.26,2.11-2-1.29-1.29-2.27-2.22-2.93-2.81l1.31-1.39c1.26,1.18,2.21,2.09,2.87,2.74a19.15,19.15,0,0,0,2.29-3.53h-5.78a24,24,0,0,1-5,4.46l-1.09-1.76a22.07,22.07,0,0,0,6.42-6.82l2,.59c-.22.44-.54,1-.95,1.69h5.39a4.27,4.27,0,0,1-.26-.74c-.1-.34-.15-.54-.17-.6l2.14-.32A22.82,22.82,0,0,0,689,193.1a24.22,24.22,0,0,0,3.63-5h-6.39v-2h8.89v2a26.36,26.36,0,0,1-4.51,6.62,32.66,32.66,0,0,0,6.61,4.46l-1,2.05a34.32,34.32,0,0,1-7-5v1.52H677.31V196.3a33.17,33.17,0,0,1-7.1,4.91l-1-2a34.74,34.74,0,0,0,4.83-3C673.07,195.26,672.14,194.37,671.26,193.56Zm-.89,16.34a23.39,23.39,0,0,0,6.16-6.48l1.6,1.22a24.6,24.6,0,0,1-6.35,6.89Zm24.52-9v2.07H684.81v5.86c0,1.45-.19,2.36-.59,2.73s-1.36.56-2.89.56c-1.08,0-2.41-.06-4-.17l-.07-2c1.49.09,2.71.14,3.66.14a2.85,2.85,0,0,0,1.31-.16c.13-.11.19-.43.19-1v-5.94H671.58v-2.07Zm-16.95-5.15h10.79a27.94,27.94,0,0,1-5.36-7.11A24.73,24.73,0,0,1,677.94,195.71Zm10,9.06,1.49-1.52a60.2,60.2,0,0,1,6.73,6.93l-1.51,1.49A69.86,69.86,0,0,0,687.91,204.77Z" transform="translate(-33.13 -132.98)"/></svg>