<svg xmlns="http://www.w3.org/2000/svg" xml:space="preserve" id="logo" x="0" y="0" style="enable-background:new 0 0 664.1 234" version="1.1" viewBox="0 0 664.1 234"><style>.st1{fill:#fff}</style><path d="M217.2 234H0L108.6 46l27 46.8-55 95.3h110z" style="fill:#1bb7ca"/><path d="M190.6 188.1h-110l55-95.3z" style="fill:#fff"/><path d="M297.8 188.1H190.6l-55-95.3L189.2 0z" style="fill:#ec6c1f"/><path d="M423.9 119.4h9.4v5.3h-9.4v5.5h9.4v5.1h-9.4v5.5H436v5.6h-36v-19.1c-1.1 2.4-2 4.1-2.6 5.1l-4.6-6.3c.2-.2.4-.5.6-.7.2-.2.3-.5.4-.7H385v5.5h9.4v5.1H385v5.5h12.2v5.6H361v-19.1c-.8 1.7-1.7 3.4-2.6 5.1l-4.5-6.3c4.6-7.3 8-16.7 10.3-28l6.9 1c-.7 3.4-1.4 6.3-2.1 8.8h9.9c1.1-3.2 2-6.5 2.7-9.8l6.9 1c-.6 2.5-1.3 5.4-2.3 8.8h10.2v6.2H385v5.3h9.4v4.1c3.8-6.8 6.7-15.3 8.8-25.3l6.8 1c-.7 3.4-1.4 6.3-2.1 8.8h10c1.1-3.2 1.9-6.5 2.6-9.8l7 1c-.7 3.2-1.5 6.1-2.3 8.8h10.1v6.2H424v5.2zm-64.4 38.8v-6.4h70.2v6.4c-5.4 6.3-12.8 11.7-22.2 16 9.6 2.8 19.5 5 29.4 6.5l-2.6 6.3c-12.2-1.8-24.2-4.9-35.9-9.1-10.9 4-24.5 7-40.9 9.1l-2.5-6.4c11.6-1.2 23-3.4 34.2-6.5-8.7-3.8-15.4-7.8-20.3-11.9l3.7-4.1-13.1.1zm8.5-44v5.3h9.9v-5.3H368zm9.9 10.5H368v5.5h9.9v-5.5zm-10 16.1h9.9v-5.5h-9.9v5.5zm30.6 30.3c9.1-3.5 16.4-7.8 21.8-12.9h-45.5c6 4.9 13.9 9.2 23.7 12.9zm8.4-56.9v5.3h10v-5.3h-10zm10 10.5h-10v5.5h10v-5.5zm-10 16.1h10v-5.5h-10v5.5zM488 112.6h6.1v67.1h-22v6.3h-6.6v-73.4h6.1V173h5V99.8h6.4V173h5v-60.4zm9.1 27.7-1.9-6.1c8.1-1.8 15.9-4.5 23.5-8-3.9-2.7-7.6-5.8-10.9-9.2-2.7 2.5-5.5 4.9-8.5 7l-4.2-5.5c7.8-5.5 14.5-12.5 19.6-20.6l7 1.2c-1 1.8-2.1 3.6-3.4 5.3h29v6.3c-4.4 6-9.8 11.3-16 15.5 6.3 3.2 12.9 5.8 19.8 7.8l-1.6 6.3c-8.6-2.4-16.9-5.8-24.7-10.1-8.6 4.5-18 8-27.7 10.1zm53.1 29.6v6.5h-22.6v11.9h-7.4v-11.9h-23.7v-6.5h23.7v-7.7h-20.3v-5.9h20.3v-7.8h-22v-6.3h22V134h7.4v8.2h20.5v6.3h-20.5v7.8h18.6v6h-18.6v7.7l22.6-.1zm-25-47.4c5.3-3.2 10-7.2 14-11.9h-25.4c-.2.2-.3.3-.4.5-.1.2-.3.3-.5.5-.2.1-.3.3-.5.5 3.9 3.9 8.2 7.4 12.8 10.4zM579.2 127.7l4.3-4.3c4 3.7 7.2 6.6 9.5 8.9 2.2-1.9 4.5-4 6.7-6.2-4.1-4.1-7.2-7.1-9.3-8.9l4.2-4.4c4 3.8 7 6.7 9.1 8.7 2.8-3.5 5.3-7.2 7.3-11.2h-18.4c-4.6 5.4-9.9 10.2-15.8 14.2l-3.4-5.6c9.1-6.6 15.9-13.8 20.4-21.7l6.3 1.9c-.7 1.4-1.7 3.2-3 5.4h17.2c-.4-.8-.7-1.6-.8-2.4-.3-1.1-.5-1.7-.5-1.9l6.8-1c3.3 10.1 8.8 19.4 16.1 27.2 4.5-4.8 8.4-10.2 11.5-16h-20.3V104h28.3v6.2c-3.7 7.7-8.5 14.8-14.3 21 6.4 5.6 13.5 10.3 21 14.2L659 152c-8.1-4.3-15.6-9.7-22.3-15.9v4.9h-38v-4.6c-6.8 6.2-14.4 11.4-22.6 15.6l-3.1-6.3c5.4-2.8 10.5-6 15.4-9.6-3.4-3-6.4-5.8-9.2-8.4zm-2.8 52c7.8-5.6 14.4-12.6 19.6-20.6l5.1 3.9c-5.3 8.5-12.1 16-20.2 21.9l-4.5-5.2zm78-28.7v6.6h-32v18.6c0 4.6-.6 7.5-1.9 8.7s-4.3 1.8-9.2 1.8c-3.4 0-7.7-.2-12.7-.5l-.2-6.5c4.8.3 8.6.4 11.6.4 2.4 0 3.8-.2 4.2-.5s.6-1.4.6-3.1v-18.9h-34.6V151h74.2zm-53.9-16.4h34.3c-6.9-6.6-12.6-14.2-17.1-22.6-4.3 8.5-10.1 16.1-17.2 22.6zm31.7 28.8 4.7-4.8c7.7 6.7 14.9 14.1 21.4 22l-4.8 4.7c-6.6-7.8-13.7-15.1-21.3-21.9zM361.1 58.9c2.2-2.2 3.8-4.9 4.8-7.8l2.1.5c-.2.8-.5 1.6-.8 2.4h8v1.8c1.5-1.3 2.7-2.9 3.6-4.7l2 .5c-.4.8-.8 1.6-1.3 2.3h8.5v2h-5.5c.5 1.4 1 2.6 1.3 3.6l-2 .8c-.5-1.3-1-2.7-1.7-4.4h-2.2c-1 1.1-2.1 2.1-3.3 3l-1.4-1.6c.6-.4 1.2-.8 1.7-1.3h-5.1c.1.2.5 1.5 1.4 3.8l-2 .7c-.5-1.5-1.1-3-1.7-4.5H366c-.9 1.7-2.1 3.2-3.5 4.5l-1.4-1.6zM372.4 73c-3.4 1.8-7 3.2-10.7 4.1l-.4-2.1c1.9-.5 3.5-1 4.9-1.5v-9.9h-4.3v-2.1h11.2v2.1h-4.6v9c1.3-.5 2.5-1 3.5-1.6l.4 2zm3.9-10.2v2.1c.1 3.1-.4 6.2-1.4 9.1-.9 2.2-2.5 4.1-4.5 5.3l-1.4-1.9c1.8-1 3.2-2.6 4-4.5.9-2.6 1.3-5.4 1.1-8.2v-3.8H385v14.5c0 .4 0 .9.1 1.3.1.1.3.2.7.2.5 0 .9-.4 1-.9.2-1.8.3-3.6.3-5.5l1.9.1c0 1.4 0 2.5-.1 3.3s-.1 1.5-.2 2.2l-.3 1.5c-.1.3-.3.6-.6.8-.3.2-.6.3-.9.4-.4 0-.9.1-1.3.1-1.2 0-2-.2-2.3-.6-.4-.8-.6-1.7-.5-2.6V62.8h-6.5zm.4 3.1 1.9-1c1.5 2.7 2.7 5.5 3.7 8.4l-1.9.9c-1-2.9-2.3-5.7-3.7-8.3zM411.7 65.3c-1.7-1.7-3.5-3.3-5.3-4.7l1.3-1.7c1.9 1.5 3.7 3 5.4 4.7l-1.4 1.7zm2 4c-1.1 3.5-2.6 6.8-4.7 9.9l-1.9-1.3c1.9-2.9 3.5-6.1 4.6-9.4l2 .8zm-6-15.5 1.3-1.7c1.7 1.3 3.3 2.8 4.9 4.3l-1.3 1.7c-1.4-1.5-3-2.9-4.9-4.3zm11.5 11.7 1.9-.9c.9 2.5 2.3 4.8 4.1 6.8 1.9-2.2 3.4-4.8 4.4-7.6h-11.8v.2c0 6.2-1.1 11.3-3.2 15.1l-1.6-1.8c.9-2 1.6-4.1 2-6.3.5-2.8.7-5.6.6-8.4v-8.2h8v-3h2.3v3h8.2v2.1c-.5 1.6-1.2 3.1-2 4.6l-1.8-1c.7-1.1 1.3-2.3 1.7-3.6h-6v5.4h6.1v2c-1.1 3.4-2.9 6.5-5.1 9.2 2.2 1.8 4.8 3.2 7.5 4l-.6 2.1c-3.1-.8-6-2.4-8.5-4.5-2.3 2.1-5 3.6-8 4.5l-.8-2.1c2.7-.8 5.1-2.1 7.2-4-2-2.3-3.5-4.9-4.6-7.6zm4.4-9h-5.9v5.4h5.9v-5.4zM453.9 60.1v-2.2h11.5v-6.2h2.4v6.2h11.4v2.2h-11.4c.2 3.6 1.5 7 3.5 9.9 2.1 3 5 5.4 8.4 7l-1.2 1.9c-2.8-1.3-5.3-3.2-7.3-5.6-2-2.3-3.6-5.1-4.5-8-1 3-2.5 5.7-4.6 8.1-2 2.4-4.6 4.3-7.4 5.6l-1.2-1.9c3.3-1.6 6.2-4 8.4-7 2.1-2.9 3.3-6.3 3.5-9.9l-11.5-.1zM504.2 62.2v-2.1h16.3v2.1c-2 2.1-4.2 4-6.6 5.6v.8h11.8v2.1H514v5.2c0 1.5-.2 2.5-.6 2.8s-1.4.5-3 .5c-.7 0-2.3 0-4.7-.1V77c2.3.1 3.8.1 4.5.1s1.1-.1 1.2-.2c.2-.4.2-.9.2-1.3v-4.9H499v-2.1h12.6v-2.8h1.5c1.5-1.1 3-2.3 4.4-3.6h-13.3zm18.2-4.6h-20v5h-2.2v-7.1h4.4c-.6-1.1-1.2-2.1-1.8-3.2l2-.9c.8 1.3 1.6 2.7 2.3 4.1h4.5c-.6-1.2-1.2-2.4-2-3.5l2-.9c.9 1.4 1.7 2.9 2.4 4.4h3.8c.9-1.4 1.7-2.8 2.4-4.3l2.1.7c-.6 1.2-1.3 2.4-2 3.6h4.4v7.1h-2.2l-.1-5zM550.1 62.2v-2.1h16.3v2.1c-2 2.1-4.2 4-6.6 5.6v.8h11.8v2.1h-11.8v5.2c0 1.5-.2 2.5-.5 2.8s-1.4.5-3 .5c-.7 0-2.3 0-4.7-.1V77c2.3.1 3.8.1 4.5.1s1.1-.1 1.2-.2c.2-.4.2-.9.2-1.3v-4.9h-12.7v-2.1h12.6v-2.8h1.5c1.5-1.1 3-2.3 4.4-3.6h-13.2zm18.2-4.6h-20v5h-2.2v-7.1h4.4c-.6-1.1-1.2-2.1-1.8-3.2l2-.9c.8 1.3 1.6 2.7 2.3 4.1h4.5c-.6-1.2-1.3-2.4-2-3.5l2-.9c.9 1.4 1.7 2.9 2.4 4.4h3.8c.9-1.4 1.7-2.8 2.4-4.3l2.1.7c-.6 1.2-1.3 2.4-2 3.6h4.4v7.1h-2.2l-.1-5zM616.9 52.3v27.4h-2.2v-1.4h-20.9v1.4h-2.2V52.3h25.3zm-23.1 24h20.8V54.2h-20.8v22.1zm16.7-4.3c1.5.9 2.6 1.6 3.3 2.1l-1.3 1.4c-2.3-1.6-4.7-3-7.1-4.3v4.1h-2.3v-3.9c-2.4 1.6-4.9 2.9-7.5 4l-1-1.7c3.2-1.1 6.1-2.7 8.8-4.7h-6.3v-6h14v5.9h-5c-.1.1-.2.2-.3.2l-.3.3c1.6.8 2.7 1.4 3.1 1.6 1.2-.9 2.4-1.9 3.5-2.9l1.2 1.3c-.8 1-1.8 1.9-2.8 2.6zm1.6-13.9h-6.8V60h8v1.7H595V60h8.1v-1.8h-6.8v-1.7h6.8v-1.6h2.2v1.6h6.8v1.6zm-12.7 9.1h9.7v-2.7h-9.7v2.7zM638.1 60.6l1.3-1.4c1.3 1.1 2.3 2.1 3 2.8.7-.6 1.4-1.3 2.1-2-1.3-1.3-2.3-2.2-2.9-2.8l1.3-1.4c1.3 1.2 2.2 2.1 2.9 2.7.9-1.1 1.7-2.3 2.3-3.5h-5.8c-1.4 1.7-3.1 3.2-5 4.5l-1.1-1.8c2.6-1.8 4.8-4.1 6.4-6.8l2 .6c-.2.4-.5 1-1 1.7h5.4c-.1-.2-.2-.5-.3-.7-.1-.3-.2-.5-.2-.6l2.1-.3c1 3.2 2.7 6.1 5 8.6 1.4-1.5 2.6-3.2 3.6-5h-6.4v-2h8.9v2c-1.2 2.4-2.7 4.7-4.5 6.6 2 1.8 4.2 3.2 6.6 4.5l-1 2.1c-2.5-1.4-4.9-3-7-5v1.5h-11.9v-1.5c-2.1 1.9-4.5 3.6-7.1 4.9l-1-2c1.7-.9 3.3-1.9 4.8-3-.7-1-1.6-1.9-2.5-2.7zm-.9 16.3c2.5-1.7 4.5-3.9 6.2-6.5l1.6 1.2c-1.7 2.7-3.8 5-6.3 6.9l-1.5-1.6zm24.6-9V70h-10.1v5.9c0 1.4-.2 2.4-.6 2.7s-1.4.6-2.9.6c-1.1 0-2.4-.1-4-.2l-.1-2c1.5.1 2.7.1 3.7.1.4 0 .9 0 1.3-.2.1-.1.2-.4.2-1V70h-10.8v-2.1h23.3zm-17-5.1h10.8c-2.2-2.1-4-4.5-5.4-7.1-1.3 2.6-3.2 5-5.4 7.1zm10 9 1.5-1.5c2.4 2.1 4.7 4.4 6.7 6.9l-1.5 1.5c-2.1-2.4-4.3-4.8-6.7-6.9z" class="st1"/></svg>