<?xml version="1.0" encoding="utf-8"?>
<!-- Generator: Adobe Illustrator 25.4.1, SVG Export Plug-In . SVG Version: 6.00 Build 0)  -->
<svg version="1.1" id="レイヤー_1" xmlns="http://www.w3.org/2000/svg" xmlns:xlink="http://www.w3.org/1999/xlink" x="0px"
	 y="0px" viewBox="0 0 664.1 234" style="enable-background:new 0 0 664.1 234;" xml:space="preserve">
<style type="text/css">
	.st0{fill:#1BB7CA;}
	.st1{fill:#FFFFFF;}
	.st2{fill:#EC6C1F;}
</style>
<polygon class="st0" points="217.2,234 0,234 108.6,46 135.6,92.8 80.6,188.1 190.6,188.1 "/>
<polygon class="st1" points="190.6,188.1 80.6,188.1 135.6,92.8 "/>
<polygon class="st2" points="297.8,188.1 190.6,188.1 135.6,92.8 189.2,0 "/>
<path class="st1" d="M423.9,119.4h9.4v5.3h-9.4v5.5h9.4v5.1h-9.4v5.5H436v5.6h-36v-19.1c-1.1,2.4-2,4.1-2.6,5.1l-4.6-6.3
	c0.2-0.2,0.4-0.5,0.6-0.7c0.2-0.2,0.3-0.5,0.4-0.7h-8.8v5.5h9.4v5.1h-9.4v5.5h12.2v5.6H361v-19.1c-0.8,1.7-1.7,3.4-2.6,5.1l-4.5-6.3
	c4.6-7.3,8-16.7,10.3-28l6.9,1c-0.7,3.4-1.4,6.3-2.1,8.8h9.9c1.1-3.2,2-6.5,2.7-9.8l6.9,1c-0.6,2.5-1.3,5.4-2.3,8.8h10.2v6.2h-11.4
	v5.3h9.4v4.1c3.8-6.8,6.7-15.3,8.8-25.3l6.8,1c-0.7,3.4-1.4,6.3-2.1,8.8h10c1.1-3.2,1.9-6.5,2.6-9.8l7,1c-0.7,3.2-1.5,6.1-2.3,8.8
	h10.1v6.2h-11.3V119.4z M359.5,158.2v-6.4h70.2v6.4c-5.4,6.3-12.8,11.7-22.2,16c9.6,2.8,19.5,5,29.4,6.5l-2.6,6.3
	c-12.2-1.8-24.2-4.9-35.9-9.1c-10.9,4-24.5,7-40.9,9.1l-2.5-6.4c11.6-1.2,23-3.4,34.2-6.5c-8.7-3.8-15.4-7.8-20.3-11.9l3.7-4.1
	L359.5,158.2z M368,114.2v5.3h9.9v-5.3H368z M377.9,124.7h-9.9v5.5h9.9V124.7z M367.9,140.8h9.9v-5.5h-9.9V140.8z M398.5,171.1
	c9.1-3.5,16.4-7.8,21.8-12.9h-45.5C380.8,163.1,388.7,167.4,398.5,171.1L398.5,171.1z M406.9,114.2v5.3h10v-5.3H406.9z M416.9,124.7
	h-10v5.5h10L416.9,124.7z M406.9,140.8h10v-5.5h-10L406.9,140.8z"/>
<path class="st1" d="M488,112.6h6.1v67.1h-22v6.3h-6.6v-73.4h6.1V173h5V99.8h6.4V173h5L488,112.6z M497.1,140.3l-1.9-6.1
	c8.1-1.8,15.9-4.5,23.5-8c-3.9-2.7-7.6-5.8-10.9-9.2c-2.7,2.5-5.5,4.9-8.5,7l-4.2-5.5c7.8-5.5,14.5-12.5,19.6-20.6l7,1.2
	c-1,1.8-2.1,3.6-3.4,5.3h29v6.3c-4.4,6-9.8,11.3-16,15.5c6.3,3.2,12.9,5.8,19.8,7.8l-1.6,6.3c-8.6-2.4-16.9-5.8-24.7-10.1
	C516.2,134.7,506.8,138.2,497.1,140.3L497.1,140.3z M550.2,169.9v6.5h-22.6v11.9h-7.4v-11.9h-23.7v-6.5h23.7v-7.7h-20.3v-5.9h20.3
	v-7.8h-22v-6.3h22V134h7.4v8.2h20.5v6.3h-20.5v7.8h18.6v6h-18.6v7.7L550.2,169.9z M525.2,122.5c5.3-3.2,10-7.2,14-11.9h-25.4
	c-0.2,0.2-0.3,0.3-0.4,0.5c-0.1,0.2-0.3,0.3-0.5,0.5c-0.2,0.1-0.3,0.3-0.5,0.5C516.3,116,520.6,119.5,525.2,122.5L525.2,122.5z"/>
<path class="st1" d="M579.2,127.7l4.3-4.3c4,3.7,7.2,6.6,9.5,8.9c2.2-1.9,4.5-4,6.7-6.2c-4.1-4.1-7.2-7.1-9.3-8.9l4.2-4.4
	c4,3.8,7,6.7,9.1,8.7c2.8-3.5,5.3-7.2,7.3-11.2h-18.4c-4.6,5.4-9.9,10.2-15.8,14.2l-3.4-5.6c9.1-6.6,15.9-13.8,20.4-21.7l6.3,1.9
	c-0.7,1.4-1.7,3.2-3,5.4h17.2c-0.4-0.8-0.7-1.6-0.8-2.4c-0.3-1.1-0.5-1.7-0.5-1.9l6.8-1c3.3,10.1,8.8,19.4,16.1,27.2
	c4.5-4.8,8.4-10.2,11.5-16h-20.3V104h28.3v6.2c-3.7,7.7-8.5,14.8-14.3,21c6.4,5.6,13.5,10.3,21,14.2l-3.1,6.6
	c-8.1-4.3-15.6-9.7-22.3-15.9v4.9h-38v-4.6c-6.8,6.2-14.4,11.4-22.6,15.6l-3.1-6.3c5.4-2.8,10.5-6,15.4-9.6
	C585,133.1,582,130.3,579.2,127.7z M576.4,179.7c7.8-5.6,14.4-12.6,19.6-20.6l5.1,3.9c-5.3,8.5-12.1,16-20.2,21.9L576.4,179.7z
	 M654.4,151v6.6h-32v18.6c0,4.6-0.6,7.5-1.9,8.7s-4.3,1.8-9.2,1.8c-3.4,0-7.7-0.2-12.7-0.5l-0.2-6.5c4.8,0.3,8.6,0.4,11.6,0.4
	c2.4,0,3.8-0.2,4.2-0.5s0.6-1.4,0.6-3.1v-18.9h-34.6V151L654.4,151z M600.5,134.6h34.3c-6.9-6.6-12.6-14.2-17.1-22.6
	C613.4,120.5,607.6,128.1,600.5,134.6L600.5,134.6z M632.2,163.4l4.7-4.8c7.7,6.7,14.9,14.1,21.4,22l-4.8,4.7
	C646.9,177.5,639.8,170.2,632.2,163.4L632.2,163.4z"/>
<path class="st1" d="M361.1,58.9c2.2-2.2,3.8-4.9,4.8-7.8l2.1,0.5c-0.2,0.8-0.5,1.6-0.8,2.4h8v1.8c1.5-1.3,2.7-2.9,3.6-4.7l2,0.5
	c-0.4,0.8-0.8,1.6-1.3,2.3h8.5v2h-5.5c0.5,1.4,1,2.6,1.3,3.6l-2,0.8c-0.5-1.3-1-2.7-1.7-4.4h-2.2c-1,1.1-2.1,2.1-3.3,3l-1.4-1.6
	c0.6-0.4,1.2-0.8,1.7-1.3h-5.1c0.1,0.2,0.5,1.5,1.4,3.8l-2,0.7c-0.5-1.5-1.1-3-1.7-4.5H366c-0.9,1.7-2.1,3.2-3.5,4.5L361.1,58.9z
	 M372.4,73c-3.4,1.8-7,3.2-10.7,4.1l-0.4-2.1c1.9-0.5,3.5-1,4.9-1.5v-9.9h-4.3v-2.1h11.2v2.1h-4.6v9c1.3-0.5,2.5-1,3.5-1.6L372.4,73
	z M376.3,62.8v2.1c0.1,3.1-0.4,6.2-1.4,9.1c-0.9,2.2-2.5,4.1-4.5,5.3l-1.4-1.9c1.8-1,3.2-2.6,4-4.5c0.9-2.6,1.3-5.4,1.1-8.2v-3.8
	H385v14.5c0,0.4,0,0.9,0.1,1.3c0.1,0.1,0.3,0.2,0.7,0.2c0.5,0,0.9-0.4,1-0.9c0.2-1.8,0.3-3.6,0.3-5.5l1.9,0.1c0,1.4,0,2.5-0.1,3.3
	s-0.1,1.5-0.2,2.2c-0.1,0.5-0.2,1-0.3,1.5c-0.1,0.3-0.3,0.6-0.6,0.8c-0.3,0.2-0.6,0.3-0.9,0.4c-0.4,0-0.9,0.1-1.3,0.1
	c-1.2,0-2-0.2-2.3-0.6c-0.4-0.8-0.6-1.7-0.5-2.6V62.8L376.3,62.8z M376.7,65.9l1.9-1c1.5,2.7,2.7,5.5,3.7,8.4l-1.9,0.9
	C379.4,71.3,378.1,68.5,376.7,65.9L376.7,65.9z"/>
<path class="st1" d="M411.7,65.3c-1.7-1.7-3.5-3.3-5.3-4.7l1.3-1.7c1.9,1.5,3.7,3,5.4,4.7L411.7,65.3z M413.7,69.3
	c-1.1,3.5-2.6,6.8-4.7,9.9l-1.9-1.3c1.9-2.9,3.5-6.1,4.6-9.4L413.7,69.3z M407.7,53.8l1.3-1.7c1.7,1.3,3.3,2.8,4.9,4.3l-1.3,1.7
	C411.2,56.6,409.6,55.2,407.7,53.8L407.7,53.8z M419.2,65.5l1.9-0.9c0.9,2.5,2.3,4.8,4.1,6.8c1.9-2.2,3.4-4.8,4.4-7.6h-11.8V64
	c0,6.2-1.1,11.3-3.2,15.1l-1.6-1.8c0.9-2,1.6-4.1,2-6.3c0.5-2.8,0.7-5.6,0.6-8.4v-8.2h8v-3h2.3v3h8.2v2.1c-0.5,1.6-1.2,3.1-2,4.6
	l-1.8-1c0.7-1.1,1.3-2.3,1.7-3.6h-6v5.4h6.1v2c-1.1,3.4-2.9,6.5-5.1,9.2c2.2,1.8,4.8,3.2,7.5,4l-0.6,2.1c-3.1-0.8-6-2.4-8.5-4.5
	c-2.3,2.1-5,3.6-8,4.5l-0.8-2.1c2.7-0.8,5.1-2.1,7.2-4C421.8,70.8,420.3,68.2,419.2,65.5L419.2,65.5z M423.6,56.5h-5.9v5.4h5.9V56.5
	z"/>
<path class="st1" d="M453.9,60.1v-2.2h11.5v-6.2h2.4v6.2h11.4v2.2h-11.4c0.2,3.6,1.5,7,3.5,9.9c2.1,3,5,5.4,8.4,7l-1.2,1.9
	c-2.8-1.3-5.3-3.2-7.3-5.6c-2-2.3-3.6-5.1-4.5-8c-1,3-2.5,5.7-4.6,8.1c-2,2.4-4.6,4.3-7.4,5.6l-1.2-1.9c3.3-1.6,6.2-4,8.4-7
	c2.1-2.9,3.3-6.3,3.5-9.9L453.9,60.1z"/>
<path class="st1" d="M504.2,62.2v-2.1h16.3v2.1c-2,2.1-4.2,4-6.6,5.6v0.8h11.8v2.1H514v5.2c0,1.5-0.2,2.5-0.6,2.8s-1.4,0.5-3,0.5
	c-0.7,0-2.3,0-4.7-0.1v-2.1c2.3,0.1,3.8,0.1,4.5,0.1s1.1-0.1,1.2-0.2c0.2-0.4,0.2-0.9,0.2-1.3v-4.9H499v-2.1h12.6v-2.8h1.5
	c1.5-1.1,3-2.3,4.4-3.6L504.2,62.2z M522.4,57.6h-20v5h-2.2v-7.1h4.4c-0.6-1.1-1.2-2.1-1.8-3.2l2-0.9c0.8,1.3,1.6,2.7,2.3,4.1h4.5
	c-0.6-1.2-1.2-2.4-2-3.5l2-0.9c0.9,1.4,1.7,2.9,2.4,4.4h3.8c0.9-1.4,1.7-2.8,2.4-4.3l2.1,0.7c-0.6,1.2-1.3,2.4-2,3.6h4.4v7.1h-2.2
	L522.4,57.6z"/>
<path class="st1" d="M550.1,62.2v-2.1h16.3v2.1c-2,2.1-4.2,4-6.6,5.6v0.8h11.8v2.1h-11.8v5.2c0,1.5-0.2,2.5-0.5,2.8s-1.4,0.5-3,0.5
	c-0.7,0-2.3,0-4.7-0.1v-2.1c2.3,0.1,3.8,0.1,4.5,0.1s1.1-0.1,1.2-0.2c0.2-0.4,0.2-0.9,0.2-1.3v-4.9h-12.7v-2.1h12.6v-2.8h1.5
	c1.5-1.1,3-2.3,4.4-3.6L550.1,62.2z M568.3,57.6h-20v5h-2.2v-7.1h4.4c-0.6-1.1-1.2-2.1-1.8-3.2l2-0.9c0.8,1.3,1.6,2.7,2.3,4.1h4.5
	c-0.6-1.2-1.3-2.4-2-3.5l2-0.9c0.9,1.4,1.7,2.9,2.4,4.4h3.8c0.9-1.4,1.7-2.8,2.4-4.3l2.1,0.7c-0.6,1.2-1.3,2.4-2,3.6h4.4v7.1h-2.2
	L568.3,57.6z"/>
<path class="st1" d="M616.9,52.3v27.4h-2.2v-1.4h-20.9v1.4h-2.2V52.3H616.9z M593.8,76.3h20.8V54.2h-20.8V76.3z M610.5,72
	c1.5,0.9,2.6,1.6,3.3,2.1l-1.3,1.4c-2.3-1.6-4.7-3-7.1-4.3v4.1h-2.3v-3.9c-2.4,1.6-4.9,2.9-7.5,4l-1-1.7c3.2-1.1,6.1-2.7,8.8-4.7
	h-6.3V63h14v5.9h-5c-0.1,0.1-0.2,0.2-0.3,0.2l-0.3,0.3c1.6,0.8,2.7,1.4,3.1,1.6c1.2-0.9,2.4-1.9,3.5-2.9l1.2,1.3
	C612.5,70.4,611.5,71.3,610.5,72L610.5,72z M612.1,58.1h-6.8V60h8v1.7H595V60h8.1v-1.8h-6.8v-1.7h6.8v-1.6h2.2v1.6h6.8L612.1,58.1z
	 M599.4,67.2h9.7v-2.7h-9.7V67.2z"/>
<path class="st1" d="M638.1,60.6l1.3-1.4c1.3,1.1,2.3,2.1,3,2.8c0.7-0.6,1.4-1.3,2.1-2c-1.3-1.3-2.3-2.2-2.9-2.8l1.3-1.4
	c1.3,1.2,2.2,2.1,2.9,2.7c0.9-1.1,1.7-2.3,2.3-3.5h-5.8c-1.4,1.7-3.1,3.2-5,4.5l-1.1-1.8c2.6-1.8,4.8-4.1,6.4-6.8l2,0.6
	c-0.2,0.4-0.5,1-1,1.7h5.4c-0.1-0.2-0.2-0.5-0.3-0.7c-0.1-0.3-0.2-0.5-0.2-0.6l2.1-0.3c1,3.2,2.7,6.1,5,8.6c1.4-1.5,2.6-3.2,3.6-5
	h-6.4v-2h8.9v2c-1.2,2.4-2.7,4.7-4.5,6.6c2,1.8,4.2,3.2,6.6,4.5l-1,2.1c-2.5-1.4-4.9-3-7-5v1.5h-11.9v-1.5c-2.1,1.9-4.5,3.6-7.1,4.9
	l-1-2c1.7-0.9,3.3-1.9,4.8-3C639.9,62.3,639,61.4,638.1,60.6z M637.2,76.9c2.5-1.7,4.5-3.9,6.2-6.5l1.6,1.2c-1.7,2.7-3.8,5-6.3,6.9
	L637.2,76.9z M661.8,67.9V70h-10.1v5.9c0,1.4-0.2,2.4-0.6,2.7s-1.4,0.6-2.9,0.6c-1.1,0-2.4-0.1-4-0.2l-0.1-2
	c1.5,0.1,2.7,0.1,3.7,0.1c0.4,0,0.9,0,1.3-0.2c0.1-0.1,0.2-0.4,0.2-1V70h-10.8v-2.1L661.8,67.9z M644.8,62.8h10.8
	c-2.2-2.1-4-4.5-5.4-7.1C648.9,58.3,647,60.7,644.8,62.8L644.8,62.8z M654.8,71.8l1.5-1.5c2.4,2.1,4.7,4.4,6.7,6.9l-1.5,1.5
	C659.4,76.3,657.2,73.9,654.8,71.8L654.8,71.8z"/>
</svg>
